#!OML:ASF G:\ViconDB\ViconDB\414\test\team2\shane.ASF
:FULLY-SPECIFIED
:DEGREES
428
root 17.883 16.5804 -11.7052 -191.717 -27.8382 -172.086
lowerback 8.81988 -2.7933 -1.0382
upperback 3.28262 -4.01537 3.01873
thorax -1.24175 -2.14776 4.09303
lowerneck -16.6809 -3.09692 -10.0015
upperneck 22.6624 -3.7477 6.399
head 10.3062 -2.05326 3.40154
rclavicle 2.06612e-014 -1.31198e-014
rhumerus -52.1295 -13.6334 -69.0832
rradius 22.5288
rwrist 49.8669
rhand -26.9789 -11.8279
rfingers 7.12502
rthumb -0.399713 -41.8073
lclavicle 2.50438e-014 -5.83433e-014
lhumerus -19.0474 -31.4352 98.201
lradius 37.3671
lwrist -19.7165
lhand -40.8397 5.44158
lfingers 7.12502
lthumb -13.7771 34.9654
rfemur -15.3162 -18.4009 20.9826
rtibia 29.5717
rfoot -19.7567 16.9796
rtoes -11.0259
lfemur 30.2048 -0.637685 -11.1941
ltibia -4.77083e-014
lfoot -14.5446 -33.6961
ltoes -12.066
429
root 17.8299 16.5895 -11.9009 -191.904 -28.456 -172.026
lowerback 8.59804 -2.80207 -0.957282
upperback 3.22864 -4.014 3.07109
thorax -1.17731 -2.14478 4.08933
lowerneck -16.413 -3.16418 -10.2004
upperneck 22.6076 -3.86095 6.55473
head 10.2534 -2.11088 3.47542
rclavicle 2.06612e-014 -1.31198e-014
rhumerus -52.1295 -13.6334 -69.0832
rradius 22.5288
rwrist 49.8669
rhand -26.9789 -11.8279
rfingers 7.12502
rthumb -0.399713 -41.8073
lclavicle -4.12509e-014 -7.25564e-015
lhumerus -19.8737 -31.2313 98.6628
lradius 36.9985
lwrist -19.9067
lhand -40.7767 5.37031
lfingers 7.12502
lthumb -13.7164 34.8983
rfemur -15.1882 -18.8389 20.9362
rtibia 30.2761
rfoot -17.741 18.2599
rtoes -7.77681
lfemur 30.908 -1.23968 -11.1266
ltibia -2.54444e-014
lfoot -13.8359 -33.8319
ltoes -12.414
430
root 17.7675 16.5886 -12.0871 -192.006 -29.1371 -171.976
lowerback 8.35823 -2.83728 -0.667671
upperback 3.18713 -4.03337 3.08064
thorax -1.10597 -2.15079 3.92413
lowerneck -16.5705 -3.24298 -10.14
upperneck 22.8297 -3.95338 6.41616
head 10.3692 -2.16689 3.40444
rclavicle 2.06612e-014 -1.31198e-014
rhumerus -52.1295 -13.6334 -69.0832
rradius 22.5288
rwrist 49.8669
rhand -26.9789 -11.8279
rfingers 7.12502
rthumb -0.399713 -41.8073
lclavicle 3.14328e-015 -1.4064e-014
lhumerus -20.3915 -31.0847 99.121
lradius 36.4537
lwrist -19.3981
lhand -40.8354 5.89866
lfingers 7.12502
lthumb -13.773 35.4228
rfemur -14.7489 -19.4374 20.8144
rtibia 30.8184
rfoot -16.4842 17.4163
rtoes -5.82443
lfemur 31.532 -1.84977 -11.1695
ltibia -7.63333e-014
lfoot -13.3324 -33.747
ltoes -13.3649
431
root 17.7139 16.5932 -12.2685 -192.227 -29.6757 -171.448
lowerback 8.15948 -2.90451 -0.177808
upperback 3.03126 -4.08062 3.30663
thorax -1.17108 -2.17073 3.88144
lowerneck -16.4346 -3.31404 -10.1554
upperneck 22.9187 -4.0281 6.21602
head 10.3796 -2.2332 3.32521
rclavicle 2.06612e-014 -1.31198e-014
rhumerus -52.1295 -13.6334 -69.0832
rradius 22.5288
rwrist 49.8669
rhand -26.9789 -11.8279
rfingers 7.12502
rthumb -0.399713 -41.8073
lclavicle 1.86326e-014 5.34607e-014
lhumerus -21.0972 -30.4332 99.6205
lradius 35.5767
lwrist -19.2486
lhand -40.8508 5.1864
lfingers 7.12502
lthumb -13.7878 34.7095
rfemur -14.3642 -18.3255 21.1606
rtibia 31.3044
rfoot -15.9612 14.2768
rtoes -5.62625
lfemur 31.9817 -2.43869 -10.6649
ltibia -3.18055e-014
lfoot -12.5229 -33.7486
ltoes -14.3065
432
root 17.6565 16.5981 -12.4469 -192.373 -30.265 -171.104
lowerback 7.93145 -2.93569 0.275035
upperback 2.89357 -4.08133 3.39256
thorax -1.21238 -2.16504 3.70756
lowerneck -16.4355 -3.36297 -10.1133
upperneck 23.2017 -4.14001 6.19948
head 10.4917 -2.29524 3.2993
rclavicle 2.06833e-014 1.22563e-014
rhumerus -53.0417 -15.2813 -65.2648
rradius 21.9814
rwrist 51.74
rhand -27.8463 -12.4241
rfingers 7.12502
rthumb -1.23751 -42.4002
lclavicle 2.06833e-014 1.22563e-014
lhumerus -21.7843 -29.8872 100.03
lradius 34.8426
lwrist -18.7549
lhand -40.8791 5.09853
lfingers 7.12502
lthumb -13.8151 34.6198
rfemur -13.7322 -17.7117 21.2246
rtibia 31.5998
rfoot -16.1753 12.1851
rtoes -6.47572
lfemur 32.3945 -3.04164 -10.3386
ltibia -6.36111e-014
lfoot -11.1487 -33.6804
ltoes -15.4378
433
root 17.6003 16.5986 -12.6209 -192.421 -30.6975 -171.048
lowerback 7.70496 -2.89335 0.465069
upperback 2.84355 -4.01054 3.43792
thorax -1.15287 -2.12756 3.62946
lowerneck -16.4205 -3.38001 -9.83197
upperneck 23.2964 -4.156 5.8294
head 10.5107 -2.32382 3.11622
rclavicle 4.58913e-016 -9.26834e-015
rhumerus -52.5321 -15.5462 -65.1726
rradius 21.8729
rwrist 50.9012
rhand -27.6127 -12.1899
rfingers 7.12502
rthumb -1.01185 -42.1672
lclavicle 4.58913e-016 -9.26834e-015
lhumerus -22.4785 -29.6578 100.425
lradius 33.8665
lwrist -18.3431
lhand -41.2028 5.48329
lfingers 7.12502
lthumb -14.1271 34.983
rfemur -13.0859 -17.7299 21.0554
rtibia 31.8178
rfoot -16.2424 12.356
rtoes -5.7981
lfemur 32.8853 -3.44717 -10.2307
ltibia 6.04305e-014
lfoot -9.67526 -33.6566
ltoes -16.393
